<svg width="934" height="345" viewBox="0 0 934 345" fill="none" xmlns="http://www.w3.org/2000/svg">
<path d="M615.643 129.768H602.992V206.95H639.405V195.593H615.643V129.768Z" fill="#EF3B2D"/>
<path d="M684.068 162.515C682.454 159.942 680.163 157.922 677.193 156.451C674.223 154.981 671.234 154.246 668.227 154.246C664.338 154.246 660.782 154.963 657.555 156.396C654.328 157.829 651.559 159.797 649.249 162.295C646.939 164.794 645.141 167.68 643.858 170.949C642.574 174.221 641.933 177.659 641.933 181.26C641.933 184.936 642.574 188.39 643.858 191.624C645.141 194.859 646.939 197.726 649.249 200.224C651.559 202.724 654.327 204.69 657.555 206.123C660.781 207.556 664.338 208.273 668.227 208.273C671.234 208.273 674.223 207.537 677.193 206.068C680.163 204.599 682.455 202.577 684.068 200.004V206.95H696.059V155.569H684.068V162.515ZM682.969 187.544C682.235 189.529 681.209 191.256 679.889 192.726C678.568 194.197 676.973 195.373 675.103 196.255C673.232 197.137 671.159 197.577 668.886 197.577C666.612 197.577 664.558 197.137 662.725 196.255C660.891 195.372 659.315 194.197 657.995 192.726C656.675 191.256 655.666 189.529 654.97 187.544C654.271 185.559 653.925 183.464 653.925 181.26C653.925 179.054 654.271 176.959 654.97 174.974C655.665 172.99 656.675 171.264 657.995 169.793C659.315 168.324 660.892 167.146 662.725 166.265C664.558 165.382 666.612 164.942 668.886 164.942C671.159 164.942 673.232 165.382 675.103 166.265C676.973 167.147 678.568 168.324 679.889 169.793C681.209 171.264 682.235 172.99 682.969 174.974C683.701 176.959 684.069 179.054 684.069 181.26C684.068 183.464 683.701 185.559 682.969 187.544Z" fill="#EF3B2D"/>
<path d="M781.539 162.515C779.925 159.942 777.634 157.922 774.664 156.451C771.694 154.981 768.705 154.246 765.698 154.246C761.809 154.246 758.253 154.963 755.026 156.396C751.799 157.829 749.03 159.797 746.72 162.295C744.41 164.794 742.612 167.68 741.33 170.949C740.045 174.221 739.404 177.659 739.404 181.26C739.404 184.936 740.045 188.39 741.33 191.624C742.612 194.859 744.41 197.726 746.72 200.224C749.03 202.724 751.798 204.69 755.026 206.123C758.253 207.556 761.809 208.273 765.698 208.273C768.705 208.273 771.694 207.537 774.664 206.068C777.634 204.599 779.926 202.577 781.539 200.004V206.95H793.531V155.569H781.539V162.515ZM780.439 187.544C779.706 189.529 778.679 191.256 777.359 192.726C776.038 194.197 774.443 195.373 772.573 196.255C770.702 197.137 768.629 197.577 766.357 197.577C764.083 197.577 762.029 197.137 760.196 196.255C758.362 195.372 756.786 194.197 755.466 192.726C754.145 191.256 753.136 189.529 752.44 187.544C751.742 185.559 751.395 183.464 751.395 181.26C751.395 179.054 751.742 176.959 752.44 174.974C753.136 172.99 754.145 171.264 755.466 169.793C756.786 168.324 758.362 167.146 760.196 166.265C762.029 165.382 764.083 164.942 766.357 164.942C768.629 164.942 770.702 165.382 772.573 166.265C774.443 167.147 776.038 168.324 777.359 169.793C778.679 171.264 779.706 172.99 780.439 174.974C781.171 176.959 781.539 179.054 781.539 181.26C781.539 183.464 781.171 185.559 780.439 187.544Z" fill="#EF3B2D"/>
<path d="M925.075 129.768H913.085V206.95H925.075V129.768Z" fill="#EF3B2D"/>
<path d="M705.521 206.95H717.512V167.394H738.085V155.569H705.521V206.95Z" fill="#EF3B2D"/>
<path d="M841.606 155.569L826.535 194.915L811.463 155.569H799.318L819 206.95H834.069L853.751 155.569H841.606Z" fill="#EF3B2D"/>
<path d="M879.904 154.248C865.22 154.248 853.598 166.342 853.598 181.26C853.598 197.752 864.847 208.273 881.441 208.273C890.728 208.273 896.658 204.713 903.902 196.962L895.801 190.68C895.796 190.686 889.686 198.726 880.563 198.726C869.959 198.726 865.495 190.158 865.495 185.725H905.276C907.366 168.751 896.232 154.248 879.904 154.248ZM865.527 176.795C865.619 175.806 867 163.793 879.809 163.793C892.618 163.793 894.174 175.805 894.263 176.795H865.527Z" fill="#EF3B2D"/>
<path d="M566.498 129.165C566.48 129.097 566.442 129.038 566.418 128.972C566.374 128.851 566.335 128.729 566.271 128.618C566.228 128.543 566.166 128.482 566.115 128.414C566.049 128.324 565.992 128.227 565.912 128.148C565.846 128.082 565.763 128.034 565.689 127.976C565.605 127.911 565.531 127.836 565.438 127.782L565.436 127.782L565.435 127.78L538.046 111.976C537.341 111.569 536.473 111.569 535.768 111.976L508.38 127.779L508.379 127.78L508.377 127.781C508.284 127.835 508.209 127.909 508.126 127.975C508.052 128.033 507.968 128.081 507.903 128.147C507.824 128.226 507.766 128.322 507.699 128.412C507.649 128.481 507.586 128.542 507.543 128.616C507.48 128.727 507.441 128.85 507.397 128.971C507.373 129.036 507.335 129.095 507.317 129.163C507.265 129.355 507.238 129.556 507.238 129.761V159.776L484.414 172.946V114.227C484.414 114.023 484.386 113.822 484.335 113.629C484.316 113.561 484.279 113.502 484.255 113.437C484.21 113.316 484.172 113.193 484.108 113.082C484.065 113.008 484.003 112.947 483.952 112.878C483.885 112.788 483.828 112.692 483.749 112.613C483.683 112.546 483.6 112.499 483.526 112.441C483.442 112.375 483.367 112.301 483.275 112.247L483.273 112.246L483.271 112.245L455.883 96.4409C455.179 96.0343 454.31 96.0343 453.606 96.4409L426.218 112.245L426.216 112.246L426.215 112.247C426.122 112.301 426.046 112.375 425.963 112.441C425.89 112.499 425.806 112.547 425.741 112.613C425.661 112.692 425.604 112.788 425.537 112.878C425.486 112.947 425.424 113.008 425.381 113.082C425.317 113.193 425.279 113.316 425.234 113.437C425.21 113.502 425.173 113.561 425.154 113.629C425.103 113.821 425.075 114.022 425.075 114.227V208.241C425.075 209.06 425.512 209.815 426.219 210.224L480.995 241.83C481.115 241.899 481.244 241.94 481.371 241.986C481.431 242.007 481.487 242.043 481.548 242.059C481.739 242.11 481.937 242.136 482.134 242.136C482.33 242.136 482.527 242.111 482.719 242.059C482.772 242.045 482.82 242.014 482.873 241.995C483.008 241.948 483.145 241.903 483.271 241.83L538.047 210.224C538.755 209.816 539.191 209.06 539.191 208.241V178.226L565.435 163.082C566.143 162.674 566.579 161.918 566.579 161.099V129.761C566.577 129.557 566.55 129.356 566.498 129.165ZM482.127 205.611L459.348 192.69L483.27 178.886L483.271 178.885L509.52 163.74L532.319 176.895L482.127 205.611ZM534.625 146.888V172.947L511.801 159.778V133.719L534.625 146.888ZM536.907 116.598L559.721 129.762L536.907 142.926L514.093 129.762L536.907 116.598ZM457.026 188.75V131.352L479.849 118.183V175.58L457.026 188.75ZM454.743 101.063L477.557 114.227L454.743 127.39L431.929 114.227L454.743 101.063ZM429.637 118.184L452.461 131.353V192.707C452.461 192.709 452.462 192.709 452.462 192.711C452.462 192.712 452.461 192.714 452.461 192.715C452.461 192.803 452.486 192.886 452.496 192.972C452.509 193.084 452.512 193.198 452.541 193.306C452.542 193.308 452.542 193.31 452.543 193.311C452.567 193.402 452.615 193.482 452.65 193.569C452.689 193.664 452.718 193.765 452.77 193.854C452.771 193.857 452.772 193.859 452.773 193.861C452.82 193.942 452.888 194.008 452.944 194.083C453.006 194.164 453.058 194.252 453.131 194.325C453.133 194.327 453.135 194.33 453.137 194.333C453.202 194.396 453.283 194.442 453.355 194.498C453.437 194.562 453.511 194.635 453.601 194.688C453.604 194.69 453.608 194.691 453.611 194.692C453.614 194.694 453.617 194.697 453.62 194.698L479.849 209.576V235.892L429.638 206.92V118.184H429.637ZM534.625 206.92L484.414 235.892V209.571L534.625 180.844V206.92ZM562.013 159.778L539.189 172.947V146.888L562.013 133.719V159.778Z" fill="#EF3B2D"/>
<path d="M358.672 147.591L371.285 168.907H371.774L384.448 147.591H399.382L380.294 178.863L399.809 210.136H384.6L371.774 188.789H371.285L358.458 210.136H343.311L362.887 178.863L343.677 147.591H358.672Z" fill="#272727" fill-opacity="0.58"/>
<path fill-rule="evenodd" clip-rule="evenodd" d="M69.0211 174.85V210.548H55.7259V176.717C55.7259 165.634 50.7271 160.866 42.2178 160.866C32.7521 160.866 26.3703 166.567 26.3703 179.05V210.548H13.0751V148.551H25.7323V156.301C30.0926 150.585 37.0065 148.15 45.3022 148.15C58.9169 148.15 69.0211 156.068 69.0211 174.85" fill="#2B8EFF" fill-opacity="0.58"/>
<path fill-rule="evenodd" clip-rule="evenodd" d="M72.6539 210.549H85.7321V148.551H72.6539V210.549Z" fill="#2B8EFF" fill-opacity="0.58"/>
<path fill-rule="evenodd" clip-rule="evenodd" d="M111.121 145.122V148.847H126.678V160.488H111.544V210.549H98.315V160.488H89.0018V148.847H98.315V144.888C98.315 131.849 105.406 123.351 118.528 123.351C121.426 123.351 124.279 123.775 126.736 124.685C126.736 126.673 126.783 137.67 126.783 137.67C124.773 136.157 122.233 135.109 119.481 135.109C113.978 135.109 111.121 138.485 111.121 145.122" fill="#2B8EFF" fill-opacity="0.58"/>
<path fill-rule="evenodd" clip-rule="evenodd" d="M167.449 209.521C164.762 210.739 161.619 211.348 158.476 211.348C146.093 211.348 139.003 204.123 139.003 190.372V160.421H129.69V148.768H139.003V134.551H152.232V148.768H162.749L167.365 160.421H152.232V190.022C152.232 196.082 154.983 199.345 160.063 199.345C162.814 199.345 165.46 198.529 167.471 196.781C167.471 196.781 167.449 207.404 167.449 209.521" fill="#2B8EFF" fill-opacity="0.58"/>
<path fill-rule="evenodd" clip-rule="evenodd" d="M306.402 180.148C306.402 168.356 299.262 160.842 289.707 160.842C280.258 160.842 273.117 168.356 273.117 180.148C273.117 191.939 280.258 199.454 289.707 199.454C299.262 199.454 306.402 191.939 306.402 180.148ZM259.888 180.148C259.888 161.651 272.487 148.588 289.707 148.588C307.136 148.588 319.631 161.651 319.631 180.148C319.631 198.644 307.136 211.824 289.707 211.824C272.487 211.824 259.888 198.644 259.888 180.148Z" fill="#2B8EFF" fill-opacity="0.58"/>
<path fill-rule="evenodd" clip-rule="evenodd" d="M259.625 195.284C256.656 198.081 253.038 199.386 249.164 199.386C239.546 199.386 232.229 192.108 232.229 180.092C232.229 168.192 239.546 160.798 249.164 160.798C253.045 160.798 256.667 162.108 259.64 164.914C261.33 160.854 263.708 157.282 266.648 154.325C262.091 150.526 256.117 148.551 249.268 148.551C231.602 148.551 219.058 161.606 219.058 180.092C219.058 198.578 231.602 211.749 249.268 211.749C256.09 211.749 262.046 209.7 266.596 205.891C263.671 202.926 261.306 199.347 259.625 195.284" fill="#2B8EFF" fill-opacity="0.58"/>
<path fill-rule="evenodd" clip-rule="evenodd" d="M215.842 180.268C215.842 170.383 219.215 161.438 225.341 155.082C225.731 154.677 226.132 154.284 226.542 153.903L228.503 148.951H215.804L197.918 194.581L180.139 148.951H166.382L191.04 210.99L190.087 213.434C187.547 219.601 184.796 222.045 180.139 222.045C176.541 222.045 172.943 220.416 170.403 217.739C170.403 217.739 170.411 229.026 170.411 232.026C173.425 233.399 176.892 234.148 180.245 234.148C189.664 234.148 196.861 229.842 202.046 215.761L215.855 180.889C215.852 180.682 215.842 180.476 215.842 180.268" fill="#2B8EFF" fill-opacity="0.58"/>
<path fill-rule="evenodd" clip-rule="evenodd" d="M72.6539 145.351C72.6539 137.177 78.4986 130.551 85.7088 130.551C85.7088 137.497 85.7321 145.318 85.7321 145.318C85.7321 145.318 79.5498 145.351 72.6539 145.351Z" fill="#0F7FFF"/>
</svg>
